<?xml version="1.0" encoding="UTF-8"?>
<!DOCTYPE svg PUBLIC "-//W3C//DTD SVG 1.1//EN" "http://www.w3.org/Graphics/SVG/1.1/DTD/svg11.dtd">
<svg xmlns="http://www.w3.org/2000/svg" version="1.1" width="290px" height="290px"
    style="shape-rendering:geometricPrecision; text-rendering:geometricPrecision; image-rendering:optimizeQuality; fill-rule:evenodd; clip-rule:evenodd"
    xmlns:xlink="http://www.w3.org/1999/xlink">
    <g>
        <path style="opacity:1" fill="#A5D7E8"
            d="M 130.5,1.5 C 202.686,-0.847879 252.519,31.1521 280,97.5C 297.743,157.914 283.909,209.748 238.5,253C 193.448,288.786 143.781,296.786 89.5,277C 38.5353,253.688 9.36862,214.188 2,158.5C -1.20662,99.0777 21.96,53.2444 71.5,21C 90.0219,10.6291 109.689,4.12908 130.5,1.5 Z" />
    </g>
    <g>
        <path style="opacity:1" fill="#fefefe"
            d="M 156.5,11.5 C 158.167,11.5 159.833,11.5 161.5,11.5C 158.634,17.5618 155.467,23.5618 152,29.5C 140.2,57.5738 142.866,84.2405 160,109.5C 171.667,122.5 183.333,135.5 195,148.5C 209.413,166.648 220.746,186.648 229,208.5C 231.611,220.45 229.944,231.783 224,242.5C 220.054,246.445 215.554,249.611 210.5,252C 202.317,254.419 193.984,256.086 185.5,257C 168.499,257.641 151.499,258.308 134.5,259C 134.167,259.333 133.833,259.667 133.5,260C 141.795,267.818 151.128,274.151 161.5,279C 162.833,279.667 162.833,280.333 161.5,281C 141.933,281.629 123.267,277.963 105.5,270C 96.3781,265.939 87.3781,261.606 78.5,257C 72.301,251.136 66.4677,244.969 61,238.5C 57.4181,231.764 56.7514,224.764 59,217.5C 62.4313,213.115 66.9313,211.448 72.5,212.5C 88.4617,213.259 103.795,216.759 118.5,223C 131.029,226.466 143.696,229.299 156.5,231.5C 160.201,230.825 163.868,229.991 167.5,229C 169.617,227.269 171.117,225.102 172,222.5C 172.991,214.349 172.324,206.349 170,198.5C 163.967,185.763 155.967,174.43 146,164.5C 137.667,152.833 129.333,141.167 121,129.5C 105.11,95.3896 108.777,63.723 132,34.5C 139.761,26.2341 147.927,18.5674 156.5,11.5 Z" />
    </g>
    <g>
        <path style="opacity:1" fill="#fefefe"
            d="M 112.5,45.5 C 113.478,45.811 114.145,46.4777 114.5,47.5C 100.41,71.7732 96.0764,97.6066 101.5,125C 104.223,133.948 108.39,142.114 114,149.5C 128.526,162.349 141.192,176.682 152,192.5C 160.772,213.493 153.939,223.326 131.5,222C 94.4882,199.821 76.9882,166.988 79,123.5C 81.3105,104.903 86.6439,87.2365 95,70.5C 100.843,62.1376 106.676,53.8043 112.5,45.5 Z" />
    </g>
    <g>
        <path style="opacity:1" fill="#fefefe"
            d="M 69.5,129.5 C 70.1123,141.04 70.9456,152.706 72,164.5C 75.0397,174.921 80.373,183.921 88,191.5C 89.7946,195.052 91.2946,198.718 92.5,202.5C 91.7809,206.718 89.2809,209.052 85,209.5C 63.4951,198.712 55.1618,181.378 60,157.5C 62.3297,147.85 65.4964,138.517 69.5,129.5 Z" />
    </g>
</svg>