<?xml version="1.0" encoding="UTF-8"?>
<!DOCTYPE svg PUBLIC "-//W3C//DTD SVG 1.1//EN" "http://www.w3.org/Graphics/SVG/1.1/DTD/svg11.dtd">
<svg xmlns="http://www.w3.org/2000/svg" version="1.1" width="290px" height="290px" style="shape-rendering:geometricPrecision; text-rendering:geometricPrecision; image-rendering:optimizeQuality; fill-rule:evenodd; clip-rule:evenodd" xmlns:xlink="http://www.w3.org/1999/xlink">
<g><path style="opacity:0.008" fill="#a698a4" d="M 161.5,13.5 C 161.5,12.8333 161.167,12.5 160.5,12.5C 160.762,10.4362 161.929,9.10287 164,8.5C 164.747,10.9278 163.914,12.5944 161.5,13.5 Z"/></g>
<g><path style="opacity:0.979" fill="#93296c" d="M 160.5,12.5 C 161.167,12.5 161.5,12.8333 161.5,13.5C 139.116,46.0459 138.95,78.7126 161,111.5C 172,123.833 183,136.167 194,148.5C 208.148,165.717 219.314,184.383 227.5,204.5C 232.18,217.675 231.013,230.342 224,242.5C 220.054,246.445 215.554,249.611 210.5,252C 202.645,254.31 194.645,255.976 186.5,257C 169.107,257.659 151.774,258.326 134.5,259C 133.549,259.718 133.383,260.551 134,261.5C 136.167,263.667 138.333,265.833 140.5,268C 147.858,272.271 155.192,276.438 162.5,280.5C 161.609,281.11 160.609,281.443 159.5,281.5C 148.4,280.896 137.4,279.563 126.5,277.5C 125.365,275.787 123.698,275.12 121.5,275.5C 106.904,270.702 92.904,264.536 79.5,257C 73.3567,251.188 67.5233,245.022 62,238.5C 58.3282,232.108 57.6615,225.441 60,218.5C 61.8153,216.595 63.8153,214.928 66,213.5C 76.5659,213.053 87.0659,214.22 97.5,217C 116.728,223.911 136.395,229.077 156.5,232.5C 160.024,232.099 163.358,231.433 166.5,230.5C 168.027,230.573 169.027,229.906 169.5,228.5C 171.136,227.251 172.303,225.584 173,223.5C 174.567,214.629 173.734,205.962 170.5,197.5C 170.068,196.29 169.401,195.29 168.5,194.5C 163.103,183.264 155.937,173.264 147,164.5C 138.667,152.833 130.333,141.167 122,129.5C 103.488,89.0724 110.988,53.9057 144.5,24C 149.019,20.5708 153.352,16.9041 157.5,13C 158.448,12.5172 159.448,12.3505 160.5,12.5 Z"/></g>
<g><path style="opacity:0.975" fill="#942c6d" d="M 113.5,46.5 C 114.097,46.7352 114.43,47.2352 114.5,48C 104.796,65.2738 99.4629,83.7738 98.5,103.5C 98.3404,121.523 103.84,137.523 115,151.5C 123,159.5 131,167.5 139,175.5C 143.689,181.197 148.022,187.197 152,193.5C 160.416,214.385 153.582,223.885 131.5,222C 114.617,212.117 101.45,198.617 92,181.5C 78.4847,155.902 75.9847,129.235 84.5,101.5C 86.7694,91.2339 90.6027,81.2339 96,71.5C 101.664,63.0104 107.497,54.677 113.5,46.5 Z"/></g>
<g><path style="opacity:0.954" fill="#983572" d="M 70.5,130.5 C 70.6394,140.319 70.806,150.319 71,160.5C 73.5276,172.891 79.1942,183.558 88,192.5C 89.9131,195.826 91.4131,199.326 92.5,203C 91.2942,207.895 88.2942,209.895 83.5,209C 65.4685,198.771 57.6352,183.271 60,162.5C 62.4108,151.435 65.9108,140.768 70.5,130.5 Z"/></g>
<g><path style="opacity:0.006" fill="#eadada" d="M 168.5,194.5 C 169.401,195.29 170.068,196.29 170.5,197.5C 167.993,197.368 167.326,196.368 168.5,194.5 Z"/></g>
<g><path style="opacity:0.005" fill="#fefffe" d="M 169.5,228.5 C 169.027,229.906 168.027,230.573 166.5,230.5C 167.242,228.65 168.242,227.984 169.5,228.5 Z"/></g>
<g><path style="opacity:0.012" fill="#ccaec9" d="M 121.5,275.5 C 123.698,275.12 125.365,275.787 126.5,277.5C 125.153,276.829 123.986,276.829 123,277.5C 122.283,276.956 121.783,276.289 121.5,275.5 Z"/></g>
<g><path style="opacity:0.004" fill="#f1e9e9" d="M 162.5,280.5 C 163.751,281.472 163.418,282.139 161.5,282.5C 160.584,282.457 159.917,282.124 159.5,281.5C 160.609,281.443 161.609,281.11 162.5,280.5 Z"/></g>
</svg>
